<?xml version="1.0" encoding="UTF-8"?>
<svg version="1.1" xmlns="http://www.w3.org/2000/svg" width="729" height="326">
<path d="M0 0 C3.44811137 2.79185791 4.14233624 4.7459863 5.421875 8.9609375 C9.40006166 16.91731083 14.64450831 21.80706031 21.984375 26.7734375 C28.87040631 31.66365479 33.53209355 38.20258297 35.171875 46.640625 C36.20817349 56.25877038 35.95558141 64.30270395 31.421875 72.9609375 C30.885625 73.9921875 30.349375 75.0234375 29.796875 76.0859375 C29.343125 76.7046875 28.889375 77.3234375 28.421875 77.9609375 C27.761875 77.9609375 27.101875 77.9609375 26.421875 77.9609375 C26.421875 78.6209375 26.421875 79.2809375 26.421875 79.9609375 C25.761875 79.9609375 25.101875 79.9609375 24.421875 79.9609375 C23.761875 81.9409375 23.101875 83.9209375 22.421875 85.9609375 C21.7 86.0640625 20.978125 86.1671875 20.234375 86.2734375 C15.80245911 87.35679472 13.09784318 89.26807011 9.921875 92.5234375 C7.421875 94.9609375 7.421875 94.9609375 4.921875 95.8359375 C1.18167836 97.51902599 -0.44167295 100.5607968 -2.578125 103.9609375 C-4.558125 103.4659375 -4.558125 103.4659375 -6.578125 102.9609375 C-7.09375 103.8890625 -7.609375 104.8171875 -8.140625 105.7734375 C-11.24667068 110.4270183 -15.69727418 111.58476734 -21.015625 112.6484375 C-21.86125 112.7515625 -22.706875 112.8546875 -23.578125 112.9609375 C-24.073125 114.4459375 -24.073125 114.4459375 -24.578125 115.9609375 C-31.203125 116.0859375 -31.203125 116.0859375 -34.578125 114.9609375 C-34.908125 115.8684375 -35.238125 116.7759375 -35.578125 117.7109375 C-38.24251897 122.04057771 -40.93727539 123.1844234 -45.578125 124.9609375 C-46.41472656 125.28449219 -47.25132812 125.60804688 -48.11328125 125.94140625 C-53.35249215 127.75102811 -56.3376277 128.31916129 -61.578125 125.9609375 C-62.238125 126.2909375 -62.898125 126.6209375 -63.578125 126.9609375 C-67.7613799 127.61981569 -70.05091008 126.91427277 -73.41796875 124.546875 C-74.79516534 123.49115658 -76.16084569 122.42027363 -77.515625 121.3359375 C-78.19302734 120.81386719 -78.87042969 120.29179687 -79.56835938 119.75390625 C-81.59324723 118.1813663 -83.58947347 116.57899461 -85.578125 114.9609375 C-86.23135742 114.4347583 -86.88458984 113.9085791 -87.55761719 113.36645508 C-93.27846636 108.63953272 -93.27846636 108.63953272 -94.953125 104.8984375 C-95.24960937 104.26808594 -95.54609375 103.63773437 -95.8515625 102.98828125 C-101.18192852 88.11484057 -98.44744746 68.64569429 -92.0703125 54.65234375 C-78.07031431 27.01048685 -51.75699835 5.71477478 -22.56640625 -4.1640625 C-13.29185811 -6.87974718 -8.02396676 -5.31316718 0 0 Z M-46.578125 57.9609375 C-51.30377658 62.82376329 -51.30377658 62.82376329 -53.578125 63.9609375 C-53.578125 64.6209375 -53.578125 65.2809375 -53.578125 65.9609375 C-54.44630859 66.30511719 -54.44630859 66.30511719 -55.33203125 66.65625 C-63.37972437 71.33091 -67.76111867 82.52346182 -70.578125 90.9609375 C-70.578125 91.6209375 -70.578125 92.2809375 -70.578125 92.9609375 C-62.18667491 92.92059399 -54.96506218 90.18551334 -47.29931641 87.06689453 C-45.28383964 86.24775675 -43.2647044 85.43760796 -41.24365234 84.63232422 C-15.70574602 75.45997261 -15.70574602 75.45997261 4.921875 58.7734375 C5.41059082 58.17869629 5.89930664 57.58395508 6.40283203 56.97119141 C7.90304827 55.05778835 7.90304827 55.05778835 9.421875 51.9609375 C8.32276579 45.51348435 2.22115657 40.03121427 -2.578125 35.9609375 C-18.82132952 28.97051302 -36.5377161 47.34951008 -46.578125 57.9609375 Z M-61.578125 61.9609375 C-61.578125 62.9509375 -61.578125 63.9409375 -61.578125 64.9609375 C-60.918125 64.3009375 -60.258125 63.6409375 -59.578125 62.9609375 C-60.238125 62.6309375 -60.898125 62.3009375 -61.578125 61.9609375 Z " fill="#EDEEEA" transform="translate(637.578125,123.0390625)"/>
<path d="M0 0 C6.04706542 2.92885006 8.97881247 9.33236969 11.09375 15.38671875 C11.35027344 16.21816406 11.60679687 17.04960938 11.87109375 17.90625 C12.11730469 18.60363281 12.36351562 19.30101563 12.6171875 20.01953125 C14.43359765 27.49638233 9.71772848 33.90183196 5.99951172 40.07568359 C3.8029386 43.63905556 1.55914818 47.1661055 -0.78125 50.63671875 C-2.06577937 52.79994068 -2.58617564 54.48069352 -3.12890625 56.90625 C-2.43555176 56.55433594 -1.74219727 56.20242187 -1.02783203 55.83984375 C22.37754105 43.98432001 22.37754105 43.98432001 33.05859375 39.21875 C33.75645996 38.90486328 34.45432617 38.59097656 35.17333984 38.26757812 C38.3401579 36.87874548 41.45786901 35.7015661 44.796875 34.82421875 C45.81136719 34.52128906 46.82585937 34.21835938 47.87109375 33.90625 C48.36609375 32.91625 48.36609375 32.91625 48.87109375 31.90625 C50.52109375 31.90625 52.17109375 31.90625 53.87109375 31.90625 C53.87109375 30.91625 53.87109375 29.92625 53.87109375 28.90625 C54.88171875 28.555625 55.89234375 28.205 56.93359375 27.84375 C61.87746015 26.02835521 66.57410196 23.67886089 71.23852539 21.24389648 C75.99768701 18.8997756 79.56144213 18.28578399 84.87109375 18.90625 C87.1484375 20.515625 87.1484375 20.515625 88.80859375 22.65625 C89.37449219 23.35234375 89.94039062 24.0484375 90.5234375 24.765625 C91.85894074 26.88694608 92.54340809 28.43040276 92.87109375 30.90625 C92.54109375 31.56625 92.21109375 32.22625 91.87109375 32.90625 C91.80043758 34.94680005 91.78687399 36.98959257 91.80859375 39.03125 C91.81761719 40.12695312 91.82664062 41.22265625 91.8359375 42.3515625 C91.84753906 43.19460937 91.85914063 44.03765625 91.87109375 44.90625 C91.23042969 45.19757813 90.58976563 45.48890625 89.9296875 45.7890625 C85.51453667 47.88148867 81.68813457 49.84408891 78.12109375 53.21875 C75.24526776 55.89157651 75.24526776 55.89157651 71.68359375 56.03125 C70.75546875 55.99 69.82734375 55.94875 68.87109375 55.90625 C68.23171875 56.545625 67.59234375 57.185 66.93359375 57.84375 C64.12364838 60.65369537 61.7383317 60.60877016 57.87109375 60.90625 C58.18046875 61.834375 58.18046875 61.834375 58.49609375 62.78125 C58.61984375 63.4825 58.74359375 64.18375 58.87109375 64.90625 C58.21109375 65.56625 57.55109375 66.22625 56.87109375 66.90625 C55.55109375 66.90625 54.23109375 66.90625 52.87109375 66.90625 C52.54109375 66.24625 52.21109375 65.58625 51.87109375 64.90625 C51.21109375 64.90625 50.55109375 64.90625 49.87109375 64.90625 C50.07734375 65.525 50.28359375 66.14375 50.49609375 66.78125 C50.61984375 67.4825 50.74359375 68.18375 50.87109375 68.90625 C50.21109375 69.56625 49.55109375 70.22625 48.87109375 70.90625 C47.67484375 70.7 46.47859375 70.49375 45.24609375 70.28125 C40.95284722 69.62608671 38.75771283 70.62282481 35.0625 72.734375 C32.59996823 74.05123691 30.13651905 74.93761248 27.49609375 75.84375 C22.84258521 77.4789412 18.52439851 79.46622041 14.16015625 81.7578125 C10.63777311 83.52501496 7.85044108 84.90625 3.87109375 84.90625 C4.20109375 86.22625 4.53109375 87.54625 4.87109375 88.90625 C5.53109375 88.90625 6.19109375 88.90625 6.87109375 88.90625 C8.59843864 90.53488947 10.23539332 92.18897921 11.87109375 93.90625 C15.70914125 97.84090739 19.53843369 101.5103813 23.87109375 104.90625 C25.20442708 106.23958333 26.53776042 107.57291667 27.87109375 108.90625 C28.95390625 109.6796875 28.95390625 109.6796875 30.05859375 110.46875 C31.87109375 111.90625 31.87109375 111.90625 32.87109375 114.90625 C35.35781882 116.26583514 37.91418813 117.3259187 40.5234375 118.4296875 C43.43046101 120.25806502 43.63289329 121.79811416 44.87109375 124.90625 C46.90319884 125.79179922 46.90319884 125.79179922 49.24609375 125.96875 C53.37484116 126.65687457 55.12742071 127.63494753 57.87109375 130.90625 C58.86109375 131.23625 59.85109375 131.56625 60.87109375 131.90625 C61.20109375 130.91625 61.53109375 129.92625 61.87109375 128.90625 C66.24812008 130.13181737 70.56786692 131.43685547 74.87109375 132.90625 C74.87109375 133.56625 74.87109375 134.22625 74.87109375 134.90625 C70.70971112 134.98784574 66.92384535 134.88873524 62.87109375 133.90625 C63.84201909 136.33610504 64.49293293 137.66160474 66.71875 139.1015625 C71.41324876 141.07209284 75.9037521 142.53205738 80.92578125 143.4140625 C82.87109375 143.90625 82.87109375 143.90625 85.87109375 145.90625 C85.87109375 146.56625 85.87109375 147.22625 85.87109375 147.90625 C77.2417997 150.78268135 64.00592927 150.53790989 55.74609375 146.78125 C54.10141473 145.85709703 52.47581544 144.89816535 50.87109375 143.90625 C48.95564493 142.90391925 47.03895731 141.90395261 45.12109375 140.90625 C41.98787098 139.17987088 39.08256796 137.39512307 36.24609375 135.21875 C33.11915214 132.87354379 30.02016876 131.86299761 26.30224609 130.7487793 C18.52171802 128.05239424 11.63403384 122.86492889 4.87109375 118.28125 C3.02915353 117.04481626 1.18669766 115.80915037 -0.65625 114.57421875 C-1.57003418 113.9611084 -2.48381836 113.34799805 -3.42529297 112.71630859 C-7.50051969 109.98796013 -11.58809954 107.27966558 -15.69140625 104.59375 C-16.38685547 104.13210449 -17.08230469 103.67045898 -17.79882812 103.19482422 C-20.88967434 101.1802273 -23.5200273 99.6611158 -27.12890625 98.90625 C-27.53882813 99.66550781 -27.94875 100.42476563 -28.37109375 101.20703125 C-28.90992188 102.20089844 -29.44875 103.19476563 -30.00390625 104.21875 C-30.53757812 105.20488281 -31.07125 106.19101563 -31.62109375 107.20703125 C-33.12890625 109.90625 -33.12890625 109.90625 -35.12890625 112.90625 C-36.77890625 112.57625 -38.42890625 112.24625 -40.12890625 111.90625 C-40.17162725 113.57236905 -40.16954457 115.24007885 -40.12890625 116.90625 C-39.63390625 117.40125 -39.63390625 117.40125 -39.12890625 117.90625 C-39.55797804 124.5568627 -41.43593404 130.39438961 -43.62890625 136.65625 C-44.2655402 138.50478955 -44.90100315 140.35373291 -45.53515625 142.203125 C-45.81681641 143.01104492 -46.09847656 143.81896484 -46.38867188 144.65136719 C-47.06863587 146.72265592 -47.63101453 148.78474551 -48.12890625 150.90625 C-52.53952761 151.9319759 -55.05521201 151.94309712 -59.12890625 149.90625 C-59.12890625 149.24625 -59.12890625 148.58625 -59.12890625 147.90625 C-60.44890625 147.24625 -61.76890625 146.58625 -63.12890625 145.90625 C-63.12890625 144.91625 -63.12890625 143.92625 -63.12890625 142.90625 C-64.11890625 142.57625 -65.10890625 142.24625 -66.12890625 141.90625 C-66.12890625 140.58625 -66.12890625 139.26625 -66.12890625 137.90625 C-67.11890625 137.57625 -68.10890625 137.24625 -69.12890625 136.90625 C-69.65197769 129.52513084 -68.76414943 123.73749036 -66.1015625 116.828125 C-65.01645766 113.89517383 -65.01645766 113.89517383 -64.73828125 110.63671875 C-63.95971101 105.87047146 -62.25631537 101.869825 -60.31640625 97.46875 C-59.91969727 96.55915527 -59.52298828 95.64956055 -59.11425781 94.71240234 C-51.04637824 76.4713049 -41.69165881 58.95954789 -31.73144531 41.69238281 C-30.15115174 38.94492543 -28.58672917 36.18905713 -27.02734375 33.4296875 C-22.12873484 24.77264959 -17.1531824 16.16697771 -12.00390625 7.65625 C-11.54226074 6.88692139 -11.08061523 6.11759277 -10.60498047 5.32495117 C-6.16186411 -1.9472003 -6.16186411 -1.9472003 0 0 Z " fill="#ECECE9" transform="translate(447.12890625,107.09375)"/>
<path d="M0 0 C12.37454186 -0.49985834 12.37454186 -0.49985834 17.49609375 3.375 C20.86343372 6.84935289 23.66828159 10.69261045 26.45703125 14.6328125 C28.23067021 17.27878123 28.23067021 17.27878123 30.33984375 19.27734375 C30.28125 21.265625 30.28125 21.265625 29.90234375 23.58984375 C29.41686394 27.08981448 29.3399986 29.83343267 30.33984375 33.27734375 C28.85484375 33.77234375 28.85484375 33.77234375 27.33984375 34.27734375 C26.22609375 33.59671875 25.11234375 32.91609375 23.96484375 32.21484375 C17.17374685 28.63927537 10.16377967 31.17737206 3.17578125 33.1875 C-10.53552767 37.93372232 -22.14129713 46.12425133 -32.40234375 56.22265625 C-34.66015625 58.27734375 -34.66015625 58.27734375 -36.66015625 58.27734375 C-36.90121094 58.83164063 -37.14226562 59.3859375 -37.390625 59.95703125 C-38.93556712 62.78071008 -40.8639823 64.97116673 -42.97265625 67.40234375 C-50.71263555 76.72267252 -54.64538743 86.2603446 -55.66015625 98.27734375 C-31.15066175 99.13275942 -31.15066175 99.13275942 -8.97265625 90.90234375 C-5.48392172 87.49808221 -2.85017187 83.42946306 -0.14916992 79.39160156 C4.32420618 72.70490081 9.23418028 65.55277536 15.33984375 60.27734375 C20.99361698 60.43888013 26.78635752 63.6818714 30.65234375 67.65234375 C31.20921875 68.51859375 31.76609375 69.38484375 32.33984375 70.27734375 C32.93796875 71.10234375 33.53609375 71.92734375 34.15234375 72.77734375 C36.0831391 78.46810899 35.98390091 83.49984732 34.33984375 89.27734375 C31.49998868 93.52365456 28.1210114 96.86425437 24.33984375 100.27734375 C23.63085938 100.9425 22.921875 101.60765625 22.19140625 102.29296875 C17.77880403 106.27734375 17.77880403 106.27734375 15.33984375 106.27734375 C15.33984375 106.93734375 15.33984375 107.59734375 15.33984375 108.27734375 C13.68981547 109.63121311 12.02240505 110.96412517 10.33984375 112.27734375 C10.00984375 112.93734375 9.67984375 113.59734375 9.33984375 114.27734375 C10.32984375 114.27734375 11.31984375 114.27734375 12.33984375 114.27734375 C11.72186516 118.94404005 10.45903772 122.97941055 8.7578125 127.36328125 C8.5023616 128.02389557 8.24691071 128.68450989 7.98371887 129.36514282 C7.44430323 130.75622254 6.90207302 132.1462138 6.35717773 133.53515625 C5.53353127 135.63655728 4.72020043 137.74173052 3.90820312 139.84765625 C-0.42947999 151.02217897 -0.42947999 151.02217897 -3.0234375 155.98046875 C-4.52795248 159.01104308 -4.88829167 160.41312237 -5.03515625 163.65234375 C-5.4821118 169.35351005 -7.7954373 174.07332399 -11.66015625 178.27734375 C-14.68848763 179.60329218 -16.2548935 179.50436127 -19.66015625 179.27734375 C-20.65015625 178.28734375 -20.65015625 178.28734375 -21.66015625 177.27734375 C-22.58828125 177.13296875 -23.51640625 176.98859375 -24.47265625 176.83984375 C-28.78745181 176.07840924 -31.47549228 174.588936 -34.41015625 171.33984375 C-35.66015625 169.27734375 -35.66015625 169.27734375 -36.09765625 167.15234375 C-36.49664033 165.06144275 -36.49664033 165.06144275 -38.72265625 164.02734375 C-39.68171875 163.65609375 -39.68171875 163.65609375 -40.66015625 163.27734375 C-39.4789802 157.71160159 -36.95102554 152.55653328 -34.73242188 147.34228516 C-33.91746051 145.41957643 -33.11689722 143.49126918 -32.31640625 141.5625 C-29.71881602 135.40024308 -27.22595027 130.19816335 -22.66015625 125.27734375 C-21.78621825 122.05301248 -21.78621825 122.05301248 -21.66015625 119.27734375 C-29.43526 118.65785957 -29.43526 118.65785957 -36.53515625 121.33984375 C-42.77875162 124.92767667 -49.98210505 123.16812178 -56.66015625 121.55078125 C-66.39300535 118.44167668 -72.08065624 112.56688662 -77.66015625 104.27734375 C-78.15902344 103.7978125 -78.65789062 103.31828125 -79.171875 102.82421875 C-83.52787408 98.29672364 -82.94566675 93.4205313 -82.859375 87.453125 C-82.63179759 83.82527328 -81.74968624 80.73820372 -80.66015625 77.27734375 C-80.58230769 75.59438987 -80.52163319 73.9106039 -80.47265625 72.2265625 C-79.90891044 65.60159237 -77.23163726 61.16253414 -73.59765625 55.71484375 C-73.00927979 54.80025391 -72.42090332 53.88566406 -71.81469727 52.94335938 C-67.77330395 46.73794382 -63.51921379 40.8692058 -58.66015625 35.27734375 C-58.03625 34.46136719 -57.41234375 33.64539063 -56.76953125 32.8046875 C-51.31113138 26.2647158 -43.94783635 21.20739765 -36.73046875 16.76171875 C-34.50261866 15.26392572 -34.50261866 15.26392572 -32.3828125 12.8671875 C-29.16355044 9.80496262 -25.94089242 8.01610831 -21.97265625 6.08984375 C-21.25859619 5.74179688 -20.54453613 5.39375 -19.80883789 5.03515625 C-13.12375976 1.87463477 -7.36054413 0.557736 0 0 Z " fill="#ECEDE9" transform="translate(144.66015625,115.72265625)"/>
<path d="M0 0 C1.15435547 -0.02900391 2.30871094 -0.05800781 3.49804688 -0.08789062 C10.31460908 -0.13873131 14.5282554 0.24606587 20.0625 4.3125 C21.135 5.055 22.2075 5.7975 23.3125 6.5625 C27.30039991 10.55039991 28.94814162 14.62507818 29.1875 20.25 C29.14625 20.930625 29.105 21.61125 29.0625 22.3125 C29.3925 22.6425 29.7225 22.9725 30.0625 23.3125 C30.51882644 27.53351957 29.62156113 29.06446087 27.0625 32.3125 C26.33898573 34.29264432 25.65984611 36.29071315 25.0625 38.3125 C23.4125 38.6425 21.7625 38.9725 20.0625 39.3125 C20.0625 38.6525 20.0625 37.9925 20.0625 37.3125 C18.763125 37.498125 17.46375 37.68375 16.125 37.875 C13.91015625 38.19140625 13.91015625 38.19140625 12.0625 38.3125 C11.7325 37.9825 11.4025 37.6525 11.0625 37.3125 C11.34980055 34.97305264 11.68186779 32.6385857 12.0625 30.3125 C3.72201631 30.33931828 -3.50379573 31.4816973 -11.375 34.125 C-12.11927246 34.37330566 -12.86354492 34.62161133 -13.63037109 34.87744141 C-17.22948568 36.14491709 -20.50236177 37.55925199 -23.78515625 39.51171875 C-26.9375 41.3125 -26.9375 41.3125 -29.9375 41.3125 C-29.9375 41.9725 -29.9375 42.6325 -29.9375 43.3125 C-31.9175 43.9725 -33.8975 44.6325 -35.9375 45.3125 C-35.9375 45.9725 -35.9375 46.6325 -35.9375 47.3125 C-36.5975 47.3125 -37.2575 47.3125 -37.9375 47.3125 C-36.07183512 50.94043998 -36.07183512 50.94043998 -32.9375 53.3125 C-32.9375 53.9725 -32.9375 54.6325 -32.9375 55.3125 C-32.2878125 55.54195312 -31.638125 55.77140625 -30.96875 56.0078125 C-26.9240909 57.74868381 -23.22195936 59.94558366 -19.4375 62.1875 C-18.69113281 62.62191406 -17.94476563 63.05632812 -17.17578125 63.50390625 C-13.16466433 65.86798047 -9.57728386 68.39935176 -5.9375 71.3125 C-4.968125 71.539375 -3.99875 71.76625 -3 72 C1.72478534 74.024908 3.59106189 77.95026285 6.0625 82.3125 C6.41449463 82.90482422 6.76648926 83.49714844 7.12915039 84.10742188 C8.28284511 86.8330747 8.3054662 88.92704291 8.29296875 91.8828125 C8.29103516 92.94371094 8.28910156 94.00460938 8.28710938 95.09765625 C8.27486328 96.19980469 8.26261719 97.30195313 8.25 98.4375 C8.2490332 100.10232422 8.2490332 100.10232422 8.24804688 101.80078125 C8.20293257 110.03163485 8.20293257 110.03163485 7.0625 112.3125 C5.4125 112.3125 3.7625 112.3125 2.0625 112.3125 C1.83304687 112.88355469 1.60359375 113.45460938 1.3671875 114.04296875 C-3.93999818 123.27492948 -18.00585086 131.06040301 -27.9375 134.3125 C-30.24799831 134.33198144 -32.45693933 134.12940308 -34.75390625 133.89453125 C-37.19339294 134.10864964 -37.19339294 134.10864964 -38.703125 136.6484375 C-41.73336147 140.26141175 -44.66905425 140.94968322 -49.125 142.125 C-50.27174194 142.43691284 -50.27174194 142.43691284 -51.44165039 142.75512695 C-63.64213799 145.92899461 -63.64213799 145.92899461 -69.4140625 143.09765625 C-71.13294279 142.07723336 -72.82806103 141.0156428 -74.49609375 139.9140625 C-77.83992249 137.72051084 -81.3376857 136.04574392 -84.9375 134.3125 C-84.9375 133.6525 -84.9375 132.9925 -84.9375 132.3125 C-85.9275 131.9825 -86.9175 131.6525 -87.9375 131.3125 C-88.78125 129.23828125 -88.78125 129.23828125 -89.4375 126.625 C-90.29002664 123.4325598 -91.08208719 121.04914476 -92.6875 118.125 C-94.36879396 114.34208859 -94.08638518 112.26179279 -92.9375 108.3125 C-90.45908891 105.37753949 -88.12920173 103.44030115 -84.9375 101.3125 C-84.29683594 101.95058594 -83.65617187 102.58867187 -82.99609375 103.24609375 C-82.13113281 104.07238281 -81.26617187 104.89867187 -80.375 105.75 C-79.52808594 106.57371094 -78.68117188 107.39742188 -77.80859375 108.24609375 C-73.49505965 111.35066455 -69.87947215 111.51998562 -64.68359375 110.96484375 C-52.70353395 108.37647192 -42.18132139 104.01038321 -31.9375 97.3125 C-31.2775 97.3125 -30.6175 97.3125 -29.9375 97.3125 C-28.97672474 94.24019042 -28.64582011 92.87349455 -30.16015625 89.9609375 C-33.8185488 85.440376 -36.5834627 82.75673442 -41.9375 80.3125 C-43.11134801 78.78967014 -44.28473046 77.2663825 -45.44140625 75.73046875 C-47.89098556 73.4088048 -50.82724162 72.83436752 -54.046875 72.05078125 C-54.67078125 71.80714844 -55.2946875 71.56351562 -55.9375 71.3125 C-56.2675 70.3225 -56.5975 69.3325 -56.9375 68.3125 C-58.26705177 67.63832324 -59.60064746 66.97208131 -60.9375 66.3125 C-66.78149622 56.92668789 -69.71685752 44.29023111 -67.9375 33.3125 C-63.58839822 21.29059265 -52.16406124 14.43073236 -41.21582031 9.06567383 C-27.8185596 2.83147761 -14.75325544 0.12314904 0 0 Z " fill="#EDEDEA" transform="translate(352.9375,114.6875)"/>
<path d="M0 0 C0.0825 1.11375 0.165 2.2275 0.25 3.375 C0.4975 4.57125 0.745 5.7675 1 7 C2.86644906 8.18330183 2.86644906 8.18330183 5 9 C9.40296862 14.81744888 8.30213948 21.04323836 8 28 C7.9690625 29.01191406 7.938125 30.02382812 7.90625 31.06640625 C7.61334442 36.09705963 7.61334442 36.09705963 7 38 C6.36578125 38.31453125 5.7315625 38.6290625 5.078125 38.953125 C2.15746376 40.42443555 2.07662972 41.93098655 1 45 C-0.36585982 47.8705711 -1.84057172 50.68265629 -3.3125 53.5 C-3.69083984 54.24636719 -4.06917969 54.99273437 -4.45898438 55.76171875 C-6.81002745 60.25694493 -9.27142318 63.48702116 -13 67 C-13.474375 68.03125 -13.94875 69.0625 -14.4375 70.125 C-16.39591784 73.72848883 -18.22859699 74.55563289 -22 76 C-22.66 76 -23.32 76 -24 76 C-24 76.66 -24 77.32 -24 78 C-23.01 78.33 -22.02 78.66 -21 79 C-21.73953291 82.85863919 -23.42281726 86.10763448 -25.13671875 89.625 C-28.88562458 97.48446038 -31.98660303 105.52577441 -34.97241211 113.70068359 C-35.82286712 116.02837475 -36.68314344 118.35226127 -37.54492188 120.67578125 C-38.09952256 122.17947952 -38.65357941 123.68337851 -39.20703125 125.1875 C-39.58514702 126.21109619 -39.58514702 126.21109619 -39.97090149 127.25537109 C-42.08163861 133.04735796 -44.05616759 138.7751489 -44.625 144.9375 C-44.69976562 145.70964844 -44.77453125 146.48179687 -44.8515625 147.27734375 C-44.92503906 148.13005859 -44.92503906 148.13005859 -45 149 C-50.9543039 148.58935835 -54.13077445 147.67897041 -59 144 C-59.94875 143.46375 -60.8975 142.9275 -61.875 142.375 C-62.57625 141.92125 -63.2775 141.4675 -64 141 C-64 140.34 -64 139.68 -64 139 C-64.99 138.67 -65.98 138.34 -67 138 C-71.67077312 132.57927176 -72.7780599 126.76442419 -72.484375 119.78125 C-70.1241766 101.35647535 -62.52744834 84.35314088 -54.04443359 68.01953125 C-53.03192723 66.06173493 -52.04006309 64.09461091 -51.05078125 62.125 C-44.69523442 49.63896329 -37.22605262 37.83506919 -29.82519531 25.953125 C-27.45792282 22.1229313 -25.16266283 18.25300315 -22.875 14.375 C-15.12553435 1.45431298 -15.12553435 1.45431298 -10.625 -1.625 C-6.71510693 -2.18355615 -3.76655372 -1.14911808 0 0 Z M-26 79 C-25 81 -25 81 -25 81 Z " fill="#EDEEEA" transform="translate(264,108)"/>
<path d="M0 0 C0.99 0.33 1.98 0.66 3 1 C3.33 1.99 3.66 2.98 4 4 C4.66 3.34 5.32 2.68 6 2 C7.32 2 8.64 2 10 2 C11.75 4.5 11.75 4.5 13 7 C13.2475 6.360625 13.495 5.72125 13.75 5.0625 C15 3 15 3 17.125 2.25 C17.74375 2.1675 18.3625 2.085 19 2 C19.66 3.32 20.32 4.64 21 6 C21.845625 5.154375 22.69125 4.30875 23.5625 3.4375 C26.30980529 1.14590886 26.86258165 1.00232912 30.6875 0.9375 C34 2 34 2 35.9375 3.6875 C37.36994585 6.80517625 37.54479192 8.59505052 37 12 C34.9375 15.375 34.9375 15.375 32 18 C28.10540274 18.61493641 26.00651901 18.56777996 22.5625 16.625 C21 15 21 15 21 13 C20.34 13 19.68 13 19 13 C19 14.65 19 16.3 19 18 C17.35 18.33 15.7 18.66 14 19 C13.505 16.525 13.505 16.525 13 14 C11.68 15.32 10.36 16.64 9 18 C8.01 17.67 7.02 17.34 6 17 C5.67 15.35 5.34 13.7 5 12 C4.01 13.98 3.02 15.96 2 18 C0.35 18 -1.3 18 -3 18 C-2.88602456 15.56152549 -2.75929026 13.12486826 -2.625 10.6875 C-2.5940625 9.99720703 -2.563125 9.30691406 -2.53125 8.59570312 C-2.31875081 4.93009211 -2.08066139 3.12099208 0 0 Z M28 6 C25.71271266 7.83883881 25.71271266 7.83883881 25.875 10.625 C25.91625 11.40875 25.9575 12.1925 26 13 C27.65 12.67 29.3 12.34 31 12 C31.33 10.68 31.66 9.36 32 8 C30.68 7.34 29.36 6.68 28 6 Z " fill="#D6D5D9" transform="translate(203,39)"/>
<path d="M0 0 C2.375 1.5 2.375 1.5 4 3 C4.33 2.01 4.66 1.02 5 0 C6.875 0.1875 6.875 0.1875 9 1 C10.52164099 3.89111788 11 5.71823412 11 9 C11.66 9 12.32 9 13 9 C13.66 6.36 14.32 3.72 15 1 C16.32 0.67 17.64 0.34 19 0 C20.97206063 5.91618189 18.01673674 11.18008943 15.40234375 16.5144043 C11.29100318 24.70899682 11.29100318 24.70899682 10 26 C8.33382885 26.04063832 6.66611905 26.042721 5 26 C5.61277612 23.03824877 6.25372522 21.61941217 8 19 C7.70187643 14.90080096 7.12632393 11.54387321 5 8 C3.3516367 9.75244247 3.3516367 9.75244247 2 12 C2.21717352 14.20800528 2.21717352 14.20800528 3 16 C0 18 0 18 -3.4375 17.875 C-7.38550307 16.90531504 -8.81305013 16.4116418 -11 13 C-11.7152453 7.99328289 -11.81148802 6.14563015 -8.875 2 C-5.49736169 -0.34966143 -4.02695637 -0.68543938 0 0 Z M-4 5 C-4.33 5.66 -4.66 6.32 -5 7 C-4.01 6.67 -3.02 6.34 -2 6 C-2.66 5.67 -3.32 5.34 -4 5 Z " fill="#CDCCD3" transform="translate(268,41)"/>
<path d="M0 0 C1.32 0 2.64 0 4 0 C4.66 1.32 5.32 2.64 6 4 C6.70125 3.34 7.4025 2.68 8.125 2 C11 0 11 0 14.0625 -0.625 C17 0 17 0 19.5 2.625 C21 6 21 6 20.3125 9.0625 C19.6628125 10.5165625 19.6628125 10.5165625 19 12 C18.63893903 13.66088045 18.29537827 15.32618981 18 17 C11.78693624 18.46189736 11.78693624 18.46189736 8.125 16.3125 C6.06167258 14.06711428 5.31912597 12.97850904 5 10 C4.1646875 11.4540625 4.1646875 11.4540625 3.3125 12.9375 C1 16 1 16 -1.5 16.9375 C-4.0142165 17.00035541 -5.70211105 17.03008815 -8 16 C-10.8342275 12.45721563 -10.27307131 8.30087314 -10 4 C-9.34 3.01 -8.68 2.02 -8 1 C-6.68 1 -5.36 1 -4 1 C-4 4.3 -4 7.6 -4 11 C-3.34 11.33 -2.68 11.66 -2 12 C-1.34 8.04 -0.68 4.08 0 0 Z " fill="#D5D4D9" transform="translate(114,41)"/>
<path d="M0 0 C2.125 0.375 2.125 0.375 4 1 C3.02262447 6.59178788 0.92598064 11.53187167 -1.25 16.75 C-1.63285156 17.72066406 -2.01570313 18.69132812 -2.41015625 19.69140625 C-2.98830078 21.07392578 -2.98830078 21.07392578 -3.578125 22.484375 C-3.92262695 23.32709961 -4.26712891 24.16982422 -4.62207031 25.03808594 C-6 27 -6 27 -8.65136719 27.78222656 C-9.42641602 27.8540918 -10.20146484 27.92595703 -11 28 C-12.6258077 24.10100416 -13.96232017 20.16765115 -15.1875 16.125 C-15.73470703 14.36542969 -15.73470703 14.36542969 -16.29296875 12.5703125 C-17.05812776 8.70647085 -16.77069413 5.83874401 -16 2 C-14.140625 2.08984375 -14.140625 2.08984375 -12 3 C-10.734375 5.94140625 -10.734375 5.94140625 -9.75 9.5625 C-9.41484375 10.76003906 -9.0796875 11.95757812 -8.734375 13.19140625 C-8.49203125 14.11824219 -8.2496875 15.04507813 -8 16 C-7.59007813 15.01257812 -7.18015625 14.02515625 -6.7578125 13.0078125 C-6.21379826 11.71343379 -5.66951331 10.41916884 -5.125 9.125 C-4.85558594 8.47402344 -4.58617188 7.82304688 -4.30859375 7.15234375 C-3.11576714 4.33029055 -2.18742011 2.18742011 0 0 Z " fill="#D4D4D8" transform="translate(81,32)"/>
<path d="M0 0 C1.32 0 2.64 0 4 0 C3.28101813 3.68367255 1.72782322 6.71226153 0.0625 10.0625 C-5.54408371 21.64943968 -9.64389475 33.90439398 -14 46 C-14.33 44.68 -14.66 43.36 -15 42 C-16.98 42.495 -16.98 42.495 -19 43 C-16.7085296 32.63509318 -12.27886972 22.44522101 -8.3125 12.625 C-8.02745605 11.90610596 -7.74241211 11.18721191 -7.44873047 10.4465332 C-6.05807391 7.06336084 -4.87369178 4.32745285 -2 2 C-1.34 1.34 -0.68 0.68 0 0 Z " fill="#D2D1D6" transform="translate(239,187)"/>
<path d="M0 0 C2.43943881 3.65915822 2.15014537 5.12640471 1.8125 9.4375 C1.73644531 10.57058594 1.66039063 11.70367187 1.58203125 12.87109375 C0.98071247 16.10368666 0.18690698 17.60088641 -2 20 C-5.94637474 19.43623218 -8.83196811 18.4640248 -12 16 C-13 13.625 -13 13.625 -13 11 C-12.01810813 9.32260138 -11.01866229 7.65532623 -10 6 C-10.20643199 3.74671588 -10.20643199 3.74671588 -11 2 C-6.97840655 -0.33813573 -4.49734964 -1.74896931 0 0 Z M-6 11 C-6 11.99 -6 12.98 -6 14 C-5.34 14 -4.68 14 -4 14 C-4 13.01 -4 12.02 -4 11 C-4.66 11 -5.32 11 -6 11 Z " fill="#D9D9DC" transform="translate(94,40)"/>
<path d="M0 0 C3.625 0.375 3.625 0.375 7 1 C7.33 3.31 7.66 5.62 8 8 C7.01 8.33 6.02 8.66 5 9 C4.34 8.67 3.68 8.34 3 8 C3 7.34 3 6.68 3 6 C2.34 6 1.68 6 1 6 C0.67 8.97 0.34 11.94 0 15 C1.65 15.33 3.3 15.66 5 16 C4.6875 17.9375 4.6875 17.9375 4 20 C3.01 20.33 2.02 20.66 1 21 C0.19787372 22.87387216 0.19787372 22.87387216 -0.1875 25.0625 C-0.42533203 26.16271484 -0.42533203 26.16271484 -0.66796875 27.28515625 C-0.77753906 27.85105469 -0.88710937 28.41695312 -1 29 C-2.32 29 -3.64 29 -5 29 C-5.16276042 26.98177083 -5.32552083 24.96354167 -5.48828125 22.9453125 C-5.87393036 20.60480784 -5.87393036 20.60480784 -9 19 C-8.71125 18.484375 -8.4225 17.96875 -8.125 17.4375 C-6.875107 14.90104362 -6.875107 14.90104362 -6.0625 11.625 C-4.75411098 7.16108453 -3.31897313 3.31897313 0 0 Z " fill="#D3D2D7" transform="translate(153,30)"/>
<path d="M0 0 C2.0625 0.4375 2.0625 0.4375 4 1 C3.1011306 8.96141473 -0.11143325 20.11143325 -6 26 C-7.66617115 26.04063832 -9.33388095 26.042721 -11 26 C-10.38722388 23.03824877 -9.74627478 21.61941217 -8 19 C-8.24167206 15.6770092 -8.52621981 12.91969095 -10.0625 9.9375 C-11.3589057 7.25826155 -11.13326354 4.93179788 -11 2 C-8.525 2.495 -8.525 2.495 -6 3 C-5.67 4.98 -5.34 6.96 -5 9 C-4.34 9 -3.68 9 -3 9 C-2.86722656 8.43410156 -2.73445313 7.86820313 -2.59765625 7.28515625 C-2.42105469 6.55167969 -2.24445313 5.81820312 -2.0625 5.0625 C-1.88847656 4.33160156 -1.71445312 3.60070313 -1.53515625 2.84765625 C-1 1 -1 1 0 0 Z " fill="#D5D5D9" transform="translate(284,41)"/>
<path d="M0 0 C3.3125 1.0625 3.3125 1.0625 5.25 2.75 C6.68244585 5.86767625 6.85729192 7.65755052 6.3125 11.0625 C4.25 14.4375 4.25 14.4375 1.3125 17.0625 C-2.58209726 17.67743641 -4.68098099 17.63027996 -8.125 15.6875 C-9.6875 14.0625 -9.6875 14.0625 -9.6875 12.0625 C-10.3475 12.0625 -11.0075 12.0625 -11.6875 12.0625 C-11.6875 8.7625 -11.6875 5.4625 -11.6875 2.0625 C-10.6975 3.5475 -10.6975 3.5475 -9.6875 5.0625 C-8.841875 4.216875 -7.99625 3.37125 -7.125 2.5 C-4.37769471 0.20840886 -3.82491835 0.06482912 0 0 Z M-2.6875 5.0625 C-4.97478734 6.90133881 -4.97478734 6.90133881 -4.8125 9.6875 C-4.77125 10.47125 -4.73 11.255 -4.6875 12.0625 C-3.0375 11.7325 -1.3875 11.4025 0.3125 11.0625 C0.6425 9.7425 0.9725 8.4225 1.3125 7.0625 C-0.0075 6.4025 -1.3275 5.7425 -2.6875 5.0625 Z " fill="#D6D6DA" transform="translate(233.6875,39.9375)"/>
<path d="M0 0 C0.886875 0.37125 1.77375 0.7425 2.6875 1.125 C6.40826005 2.10784228 7.67438135 1.76062164 11 0 C13.49310643 3.73965964 13.0603261 5.29070641 12.625 9.6875 C12.45871094 11.45673828 12.45871094 11.45673828 12.2890625 13.26171875 C12.14597656 14.61716797 12.14597656 14.61716797 12 16 C10.68 16.33 9.36 16.66 8 17 C7.34 14.69 6.68 12.38 6 10 C5.67386719 10.5775 5.34773437 11.155 5.01171875 11.75 C4.57472656 12.4925 4.13773438 13.235 3.6875 14 C3.25824219 14.7425 2.82898438 15.485 2.38671875 16.25 C1.92910156 16.8275 1.47148437 17.405 1 18 C0.01 18 -0.98 18 -2 18 C-2.05397335 15.5622037 -2.09365616 13.12560315 -2.125 10.6875 C-2.14175781 9.99720703 -2.15851563 9.30691406 -2.17578125 8.59570312 C-2.21217794 4.82864604 -2.14378864 3.21568296 0 0 Z " fill="#CDCCD3" transform="translate(243,41)"/>
<path d="M0 0 C1.875 1.0625 1.875 1.0625 3 3 C3.63512789 7.92224114 3.76733593 9.88387501 0.9375 14 C-2.74376653 16.50639423 -4.62901047 16.71525283 -9 16 C-11.4375 14.4375 -11.4375 14.4375 -13 12 C-13.61447856 7.77545993 -13.47763281 5.75762445 -11.1875 2.125 C-7.49523024 -1.46177634 -4.78802014 -1.19700503 0 0 Z M-6 4 C-6.33 6.31 -6.66 8.62 -7 11 C-5.68 11 -4.36 11 -3 11 C-2.06576355 7.98968256 -1.95550089 7.13349732 -3 4 C-3.99 4 -4.98 4 -6 4 Z " fill="#D5D4D9" transform="translate(172,41)"/>
<path d="M0 0 C1.32 0 2.64 0 4 0 C4.08133791 1.91595968 4.13934367 3.83291932 4.1875 5.75 C4.22230469 6.81734375 4.25710937 7.8846875 4.29296875 8.984375 C3.96736464 12.33592666 3.34221334 13.62990316 1 16 C-2.22600694 17.07533565 -4.85379533 17.41036761 -8 16 C-10.8342275 12.45721563 -10.27307131 8.30087314 -10 4 C-9.34 3.01 -8.68 2.02 -8 1 C-6.68 1 -5.36 1 -4 1 C-4 4.3 -4 7.6 -4 11 C-3.34 11.33 -2.68 11.66 -2 12 C-1.34 8.04 -0.68 4.08 0 0 Z " fill="#D5D4D8" transform="translate(114,41)"/>
<path d="M0 0 C1.32 0 2.64 0 4 0 C3.88899025 3.18814591 3.75863821 6.37522876 3.625 9.5625 C3.5940625 10.45775391 3.563125 11.35300781 3.53125 12.27539062 C3.30127783 17.50725745 2.67595556 22.03344876 1 27 C-0.32 27.33 -1.64 27.66 -3 28 C-3.85426995 25.11961319 -4.05771812 22.86364992 -3.73046875 19.8828125 C-3.64603516 19.11066406 -3.56160156 18.33851562 -3.47460938 17.54296875 C-3.37986328 16.74503906 -3.28511719 15.94710937 -3.1875 15.125 C-3.10435547 14.33480469 -3.02121094 13.54460938 -2.93554688 12.73046875 C-2.42502802 8.25131792 -1.61636346 4.24210156 0 0 Z " fill="#CDCCD3" transform="translate(100,32)"/>
<path d="M0 0 C1.32 0 2.64 0 4 0 C4.33 0.66 4.66 1.32 5 2 C5.78375 1.814375 6.5675 1.62875 7.375 1.4375 C10 1 10 1 12 2 C12 3.32 12 4.64 12 6 C10.88625 6.309375 9.7725 6.61875 8.625 6.9375 C6.64496329 7.65970328 6.64496329 7.65970328 5 9 C3.78444286 11.94237867 3.32423055 14.84371486 3 18 C1.35 18 -0.3 18 -2 18 C-2.3690205 5.33029613 -2.3690205 5.33029613 0 0 Z " fill="#D0D0D5" transform="translate(178,40)"/>
<path d="M0 0 C0.33 0.66 0.66 1.32 1 2 C1.99 2 2.98 2 4 2 C3.39124245 6.60416626 2.15277044 10.56483324 0.4375 14.875 C-0.01753906 16.02742188 -0.47257813 17.17984375 -0.94140625 18.3671875 C-1.29074219 19.23601562 -1.64007813 20.10484375 -2 21 C-2.33 20.01 -2.66 19.02 -3 18 C-3.66 18 -4.32 18 -5 18 C-5.33 18.99 -5.66 19.98 -6 21 C-7 19 -7 19 -6.47094727 17.02880859 C-6.17244873 16.24328613 -5.8739502 15.45776367 -5.56640625 14.6484375 C-5.24736328 13.79765625 -4.92832031 12.946875 -4.59960938 12.0703125 C-4.08624023 10.73613281 -4.08624023 10.73613281 -3.5625 9.375 C-3.05493164 8.02921875 -3.05493164 8.02921875 -2.53710938 6.65625 C-1.69817012 4.43483339 -0.8522225 2.21634729 0 0 Z " fill="#ACAABC" transform="translate(153,228)"/>
<path d="M0 0 C0.99 0 1.98 0 3 0 C2.70794678 0.57347168 2.41589355 1.14694336 2.11499023 1.73779297 C0.27706729 5.46676034 -1.31647171 9.29781882 -2.9375 13.125 C-3.2994043 13.97940674 -3.66130859 14.83381348 -4.03417969 15.71411133 C-6.12558909 20.71814673 -7.93805819 25.66792557 -9.34765625 30.91015625 C-10.46825203 34.50008883 -12.2242968 37.69351819 -14 41 C-14.66 41 -15.32 41 -16 41 C-13.70592564 30.6233148 -9.27106163 20.43337404 -5.25 10.625 C-4.80986572 9.54665894 -4.80986572 9.54665894 -4.36083984 8.4465332 C-3.09926413 5.4128481 -1.82876092 2.74314137 0 0 Z " fill="#8E8AA6" transform="translate(236,189)"/>
<path d="M0 0 C0.99 0 1.98 0 3 0 C3 5.28 3 10.56 3 16 C1.35 16.33 -0.3 16.66 -2 17 C-3.27659574 7.10638298 -3.27659574 7.10638298 -2 2 C-1.34 1.34 -0.68 0.68 0 0 Z " fill="#DCDCDE" transform="translate(219,41)"/>
<path d="M0 0 C0 0.66 0 1.32 0 2 C0.66 2.66 1.32 3.32 2 4 C-1 6 -1 6 -4 6 C-4 6.66 -4 7.32 -4 8 C-5.32 8.33 -6.64 8.66 -8 9 C-8 8.01 -8 7.02 -8 6 C-9.32 6.33 -10.64 6.66 -12 7 C-12 6.34 -12 5.68 -12 5 C-10.37750059 4.16180842 -8.75191503 3.3295884 -7.125 2.5 C-6.22007812 2.0359375 -5.31515625 1.571875 -4.3828125 1.09375 C-2 0 -2 0 0 0 Z " fill="#B9B8C5" transform="translate(327,150)"/>
<path d="M0 0 C3.11547441 0.67883043 5.85137721 1.74106902 8.75 3.0625 C9.54921875 3.42472656 10.3484375 3.78695312 11.171875 4.16015625 C11.77515625 4.43730469 12.3784375 4.71445313 13 5 C13 5.99 13 6.98 13 8 C7.00708997 7.58669586 3.74963401 6.68096635 -1 3 C-0.67 2.01 -0.34 1.02 0 0 Z " fill="#BFBEC9" transform="translate(497,226)"/>
<path d="M0 0 C4.37702633 1.22556737 8.69677317 2.53060547 13 4 C13 4.66 13 5.32 13 6 C9.60489167 6.06657075 6.51200592 6.11377909 3.1875 5.375 C2.465625 5.25125 1.74375 5.1275 1 5 C0.34 5.66 -0.32 6.32 -1 7 C-1.66 5.68 -2.32 4.36 -3 3 C-2.34 3 -1.68 3 -1 3 C-0.67 2.01 -0.34 1.02 0 0 Z " fill="#A4A2B6" transform="translate(509,236)"/>
<path d="M0 0 C0 4.95 0 9.9 0 15 C-0.99 15 -1.98 15 -3 15 C-3 11.37 -3 7.74 -3 4 C-3.66 3.67 -4.32 3.34 -5 3 C-2.25 0 -2.25 0 0 0 Z " fill="#EFEFEB" transform="translate(254,43)"/>
<path d="M0 0 C0.66 0.33 1.32 0.66 2 1 C-2.8836671 6.90436923 -8.1719243 12.03093773 -14 17 C-14 14 -14 14 -12.71484375 12.37426758 C-12.12832031 11.80345459 -11.54179688 11.2326416 -10.9375 10.64453125 C-10.30585937 10.02255859 -9.67421875 9.40058594 -9.0234375 8.75976562 C-8.35570312 8.11716797 -7.68796875 7.47457031 -7 6.8125 C-6.33226562 6.15830078 -5.66453125 5.50410156 -4.9765625 4.83007812 C-3.32421559 3.21313865 -1.66528399 1.60359509 0 0 Z " fill="#BCBBC7" transform="translate(573,143)"/>
<path d="M0 0 C0.66 0.33 1.32 0.66 2 1 C-3.03320206 6.77505724 -8.03739811 12.17917294 -14 17 C-14 12.37669884 -11.12290399 10.20783652 -8 7 C-5.39257574 4.59350628 -2.7233691 2.27408232 0 0 Z " fill="#BAB9C6" transform="translate(98,139)"/>
<path d="M0 0 C0.66 0.33 1.32 0.66 2 1 C0.59106853 2.63171123 -0.82745958 4.25513945 -2.25 5.875 C-3.03890625 6.77992188 -3.8278125 7.68484375 -4.640625 8.6171875 C-6.74691403 10.74439993 -8.25651526 11.90512306 -11 13 C-8.52241061 7.42542386 -4.84184017 3.63138013 0 0 Z " fill="#BDBCC8" transform="translate(299,131)"/>
<path d="M0 0 C0.66 0 1.32 0 2 0 C1.0625 9.21875 1.0625 9.21875 -1 13 C-1.99 13.33 -2.98 13.66 -4 14 C-3.00956295 9.16371695 -2.04301154 4.52381127 0 0 Z " fill="#D3D2D7" transform="translate(154,231)"/>
<path d="M0 0 C1 2 1 2 0.0625 5.125 C-0.288125 6.07375 -0.63875 7.0225 -1 8 C-2.65 8.33 -4.3 8.66 -6 9 C-6 8.34 -6 7.68 -6 7 C-6.99 6.67 -7.98 6.34 -9 6 C-8.43410156 5.65066406 -7.86820312 5.30132812 -7.28515625 4.94140625 C-6.55167969 4.48636719 -5.81820313 4.03132812 -5.0625 3.5625 C-4.33160156 3.11003906 -3.60070312 2.65757812 -2.84765625 2.19140625 C-1.06100191 1.13135967 -1.06100191 1.13135967 0 0 Z " fill="#ACAABC" transform="translate(379,145)"/>
<path d="M0 0 C0.66 0.33 1.32 0.66 2 1 C1.54554036 2.41791408 1.08625056 3.83428046 0.625 5.25 C0.36976563 6.03890625 0.11453125 6.8278125 -0.1484375 7.640625 C-0.95173667 9.86627958 -1.89711662 11.90931672 -3 14 C-3.66 14 -4.32 14 -5 14 C-4.28269264 10.76834156 -3.18684926 7.81292078 -1.9375 4.75 C-1.57527344 3.85796875 -1.21304688 2.9659375 -0.83984375 2.046875 C-0.56269531 1.37140625 -0.28554687 0.6959375 0 0 Z " fill="#9B98AF" transform="translate(225,216)"/>
<path d="M0 0 C1.32 0 2.64 0 4 0 C3.29445932 3.66881155 1.72264494 6.70450534 0 10 C-0.99 9.34 -1.98 8.68 -3 8 C-2.5359375 7.13375 -2.5359375 7.13375 -2.0625 6.25 C-1.07416636 4.15705816 -0.4831387 2.25464725 0 0 Z " fill="#BEBDC9" transform="translate(239,187)"/>
<path d="M0 0 C1.32 0.66 2.64 1.32 4 2 C3.34 3.32 2.68 4.64 2 6 C0.68 6 -0.64 6 -2 6 C-2.33 4.68 -2.66 3.36 -3 2 C-2.01 1.34 -1.02 0.68 0 0 Z " fill="#A8A6B9" transform="translate(502,168)"/>
<path d="M0 0 C0 0.66 0 1.32 0 2 C-0.99 2.495 -0.99 2.495 -2 3 C-0.68 3.66 0.64 4.32 2 5 C-0.31 5.33 -2.62 5.66 -5 6 C-5 5.34 -5 4.68 -5 4 C-5.66 4 -6.32 4 -7 4 C-7 3.34 -7 2.68 -7 2 C-4.35261084 0.5393715 -3.10551666 0 0 0 Z " fill="#BBBAC7" transform="translate(310,249)"/>
<path d="M0 0 C0.33 0.66 0.66 1.32 1 2 C1.99 2 2.98 2 4 2 C3.67 3.32 3.34 4.64 3 6 C3 5.01 3 4.02 3 3 C2.34 3 1.68 3 1 3 C0.01 5.97 -0.98 8.94 -2 12 C-3.01527342 7.93890631 -3.05430484 7.33033162 -1.5625 3.75 C-1.27503906 3.04359375 -0.98757812 2.3371875 -0.69140625 1.609375 C-0.46324219 1.07828125 -0.23507813 0.5471875 0 0 Z " fill="#9693AC" transform="translate(153,228)"/>
<path d="M0 0 C0.99 1.485 0.99 1.485 2 3 C2.66 2.67 3.32 2.34 4 2 C3.67 5.3 3.34 8.6 3 12 C2.67 11.34 2.34 10.68 2 10 C1.34 10 0.68 10 0 10 C0 6.7 0 3.4 0 0 Z " fill="#9390AA" transform="translate(222,42)"/>
<path d="M0 0 C0.66 0 1.32 0 2 0 C1.125 3.875 1.125 3.875 0 5 C-0.36760731 7.32817964 -0.70241581 9.6618385 -1 12 C-1.28875 11.38125 -1.5775 10.7625 -1.875 10.125 C-2.93720042 7.86674235 -2.93720042 7.86674235 -5 6 C-4.01 6 -3.02 6 -2 6 C-1.855625 5.195625 -1.71125 4.39125 -1.5625 3.5625 C-1 1 -1 1 0 0 Z " fill="#9D9AB1" transform="translate(111,273)"/>
<path d="M0 0 C-0.33 0.99 -0.66 1.98 -1 3 C-1.66 3 -2.32 3 -3 3 C-3 3.66 -3 4.32 -3 5 C-2.34 5.66 -1.68 6.32 -1 7 C-2.32 7.33 -3.64 7.66 -5 8 C-5 6.68 -5 5.36 -5 4 C-5.66 3.67 -6.32 3.34 -7 3 C-2.25 0 -2.25 0 0 0 Z " fill="#ADABBD" transform="translate(475,176)"/>
<path d="M0 0 C-0.33 1.32 -0.66 2.64 -1 4 C-3.31 4.33 -5.62 4.66 -8 5 C-7.67 3.68 -7.34 2.36 -7 1 C-4.50935112 0.31292445 -2.62113708 0 0 0 Z " fill="#8A86A3" transform="translate(91,44)"/>
<path d="M0 0 C-1.98 0.99 -3.96 1.98 -6 3 C-5.67 3.66 -5.34 4.32 -5 5 C-6.65 5 -8.3 5 -10 5 C-9.8125 3.125 -9.8125 3.125 -9 1 C-5.6868424 -0.8804408 -3.58825658 -1.32898392 0 0 Z " fill="#B6B4C3" transform="translate(93,40)"/>
<path d="M0 0 C0.33 0.66 0.66 1.32 1 2 C0.22265625 3.9453125 0.22265625 3.9453125 -0.9375 6.125 C-1.31777344 6.84945312 -1.69804687 7.57390625 -2.08984375 8.3203125 C-2.39019531 8.87460938 -2.69054687 9.42890625 -3 10 C-3.99 10 -4.98 10 -6 10 C-4.6302836 6.00499382 -2.74277578 3.19990508 0 0 Z " fill="#928FA9" transform="translate(415,203)"/>
<path d="M0 0 C2.31 0 4.62 0 7 0 C3.25 2 3.25 2 1 2 C0.67 2.99 0.34 3.98 0 5 C-2.31 5 -4.62 5 -7 5 C-7 4.67 -7 4.34 -7 4 C-5.02 4 -3.04 4 -1 4 C-0.67 2.68 -0.34 1.36 0 0 Z " fill="#A9A7BA" transform="translate(613,234)"/>
<path d="M0 0 C-0.33 1.65 -0.66 3.3 -1 5 C-2.32 5.33 -3.64 5.66 -5 6 C-5.33 4.68 -5.66 3.36 -6 2 C-2.25 0 -2.25 0 0 0 Z " fill="#D3D3D7" transform="translate(324,153)"/>
<path d="M0 0 C0.66 0.66 1.32 1.32 2 2 C2.66 1.67 3.32 1.34 4 1 C3.67 4.63 3.34 8.26 3 12 C2.34 10.68 1.68 9.36 1 8 C0.67 7.67 0.34 7.34 0 7 C-0.04092937 4.66702567 -0.04241723 2.33294775 0 0 Z " fill="#9A97AE" transform="translate(118,43)"/>
<path d="M0 0 C0.33 0.99 0.66 1.98 1 3 C1.639375 3.103125 2.27875 3.20625 2.9375 3.3125 C3.618125 3.539375 4.29875 3.76625 5 4 C6.25 7.0625 6.25 7.0625 7 10 C5.68 9.34 4.36 8.68 3 8 C3 7.01 3 6.02 3 5 C2.01 4.67 1.02 4.34 0 4 C0 2.68 0 1.36 0 0 Z " fill="#ADABBC" transform="translate(381,245)"/>
<path d="M0 0 C1.32 0.33 2.64 0.66 4 1 C3.67 1.66 3.34 2.32 3 3 C2.01 2.67 1.02 2.34 0 2 C-0.33 4.31 -0.66 6.62 -1 9 C-3 5.25 -3 5.25 -3 3 C-2.34 3 -1.68 3 -1 3 C-0.67 2.01 -0.34 1.02 0 0 Z " fill="#9A97AF" transform="translate(273,41)"/>
<path d="M0 0 C1.98 0.66 3.96 1.32 6 2 C6 2.66 6 3.32 6 4 C3.69 4 1.38 4 -1 4 C-0.67 2.68 -0.34 1.36 0 0 Z " fill="#C4C3CC" transform="translate(516,238)"/>
<path d="M0 0 C2.46800047 1.15173355 4.04783565 2.04783565 6 4 C5.01 5.485 5.01 5.485 4 7 C3.34 7 2.68 7 2 7 C2 5.35 2 3.7 2 2 C1.01 2.33 0.02 2.66 -1 3 C-0.67 2.01 -0.34 1.02 0 0 Z " fill="#ABA9BA" transform="translate(243,41)"/>
<path d="M0 0 C-1.15173355 2.46800047 -2.04783565 4.04783565 -4 6 C-4.39764263 7.98821313 -4.73775349 9.98944339 -5 12 C-5.33 12 -5.66 12 -6 12 C-6.32644414 7.83783725 -6.40650982 5.63686538 -4.125 2.0625 C-2 0 -2 0 0 0 Z " fill="#B1AFBF" transform="translate(165,41)"/>
<path d="M0 0 C3.465 1.485 3.465 1.485 7 3 C6.4225 3.268125 5.845 3.53625 5.25 3.8125 C2.9674132 5.01719859 1.0262058 6.40798115 -1 8 C-0.67 5.36 -0.34 2.72 0 0 Z " fill="#A6A3B7" transform="translate(163,176)"/>
<path d="M0 0 C0.99 0 1.98 0 3 0 C2.67 1.32 2.34 2.64 2 4 C0.68 4.33 -0.64 4.66 -2 5 C-1.125 1.125 -1.125 1.125 0 0 Z " fill="#8A86A3" transform="translate(126,45)"/>
</svg>
